<?xml version="1.0" encoding="utf-8"?>
<!-- Generator: Adobe Illustrator 23.0.2, SVG Export Plug-In . SVG Version: 6.00 Build 0)  -->
<svg version="1.1" xmlns="http://www.w3.org/2000/svg" xmlns:xlink="http://www.w3.org/1999/xlink" x="0px" y="0px"
	 viewBox="0 0 300 300" style="enable-background:new 0 0 300 300;" xml:space="preserve">
<style type="text/css">
	.st0{fill:#EFE8CA;}
	.st1{fill:#FFCF8F;}
	.st2{fill:#F4B162;}
	.st3{fill:#F94141;}
	.st4{fill:#FCFF8D;}
	.st5{fill:#EFEFE8;}
	.st6{fill:#F7D292;}
	.st7{fill:#293B4C;}
	.st8{fill:#FFFFFF;}
	.st9{font-family:'PatuaOne-Regular';}
	.st10{font-size:24px;}
</style>
<g id="Layer_2">
	<circle class="st0" cx="144" cy="142" r="114.3"/>
</g>
<g id="Layer_1">
	<g>
		<polygon class="st1" points="96,124.2 96,115.3 103.4,119.8 114.1,116.4 120.9,115.3 126.8,119 132.3,119.8 138.3,115.3 
			145.3,115.3 149.2,122 149.2,125.3 		"/>
		<polygon class="st1" points="177.4,125.3 178.7,120.1 188.4,114.6 188.4,122.1 185.5,125.3 		"/>
		<polygon class="st2" points="142.1,147.5 97.6,147.5 94.4,151 96,159.7 186.2,159.7 188.4,156.5 188.4,149.7 185.5,147.5 
			188.4,144.7 188.4,138.7 187,134.9 178.7,134.9 177.4,136.4 177.4,150.5 174.5,153.8 171,153.3 169.2,149.8 168.8,131.5 
			167.2,130.1 164.8,131.5 164.8,136.4 161.6,138 158.6,136.4 158.2,128.3 155.8,126.8 153.9,130.1 153.9,149.8 151.6,152.3 
			149.2,150.3 149.2,125.3 100.2,125.3 100.2,134.9 96,136.4 95.1,142.7 96.9,146 		"/>
		<polygon class="st3" points="94.4,113.3 97.6,109.1 131.6,109.1 184.9,109.1 188.4,112.6 187,115.3 179.8,118.8 176.7,126.8 
			177.4,149 175.8,152.3 173.3,153.7 169.2,151 168.8,131.5 166.3,130.1 164.8,136.4 162.3,137.6 158.6,136.4 158.2,128.3 
			155,127.3 153.9,130.1 153.9,149.8 151.6,152.3 149.2,150.3 149.2,122 146.6,116.4 141.4,114.6 134.8,117.9 129.9,119.4 
			125.8,118.6 120.9,115.3 115.9,114.6 110.1,118.6 105.5,119.1 99.1,116.4 		"/>
		<polygon class="st4" points="112.8,100.7 114.1,90.2 119,84.7 128.2,80.7 135.3,81.9 143.6,87.1 147.7,94.1 147.8,102 
			147.8,105.8 150.3,109.1 141.5,109.1 112,109.1 110.4,104.8 		"/>
		<polygon class="st5" points="158.6,106.1 158.6,100.4 153.9,94.9 147.8,101.3 147.8,105.8 152.1,109.1 158.2,108.4 171,108.3 
			172.8,103.1 167,95.1 163.7,96.4 160.2,102 		"/>
		<polygon class="st6" points="182.9,134.9 182.9,125.3 177.4,125.3 177.4,136.4 		"/>
		<polygon class="st7" points="88.5,159.7 195.9,159.7 193.2,165.8 187,168 94.4,167.2 89.6,164.7 87.7,160.5 		"/>
	</g>
	<g>
		<title>Pancake</title>
		<g>
			<path d="M189.2,158.6c0.6-0.9,0.8-2,0.8-3v-3.5c0-1.7-0.8-3.4-2.1-4.5c1.3-1.2,2.1-2.8,2.1-4.6v-3.5c0-3.3-2.7-6-6-6l0,0H184
				v-6.6h0.1c3.3,0,6-2.7,6-6l0,0v-7.1c0-3.3-2.7-6-6-6l0,0h-11.6c1.1-1.4,1.6-3,1.6-4.7c0-4-5.6-8.7-6.8-9.6l-1-0.8l-1,0.8
				c-0.8,0.6-3.5,2.9-5.3,5.6c-1.8-2.7-4.5-5-5.3-5.6l-1-0.8l-1,0.8c-1.1,0.9-2.2,1.9-3.2,3c-1.4-9.3-9.6-16.5-19.4-16.5
				c-10.8,0-19.6,8.7-19.6,19.5c0,0.8,0.1,1.6,0.2,2.4c-0.1,0.1-0.3,0.2-0.4,0.3c-1.5,1.5-2,3.8-1.1,5.8H99c-3.3,0-6,2.7-6,6l0,0
				v7.1c0,3.3,2.6,5.9,5.8,6v6.6c-3.3,0.1-5.8,2.8-5.8,6.1v3.5c0,1.8,0.8,3.4,2.1,4.6c-1.3,1.2-2.1,2.8-2.1,4.5v3.5
				c0,1.1,0.3,2.1,0.8,3H82c-0.8,0-1.5,0.7-1.5,1.5l0,0c0,0.8,0.7,1.5,1.5,1.5h4.5c0.7,4.1,4.3,7.1,8.5,7.1h92.7
				c4.2,0,7.8-3,8.5-7.1h4.4c0.8,0,1.5-0.7,1.5-1.5l0,0c0-0.8-0.7-1.5-1.5-1.5H189.2L189.2,158.6z M181,133.4h-2.4v-6.6h2.4V133.4z
				 M184,123.8h-5.3c0.4-1.7,1.5-3.2,3-4.1c0.7-0.4,1.3-0.8,1.9-1.3c1.1-0.8,2-1.5,3.5-1.8v4.2C187,122.4,185.7,123.8,184,123.8
				L184,123.8z M166.3,96.4c2.2,2,4.7,4.9,4.7,6.5c-0.1,2.6-2.2,4.7-4.8,4.6c-2.5-0.1-4.6-2.1-4.6-4.6
				C161.6,101.3,164.1,98.4,166.3,96.4z M160.2,107.6H160l0.1-0.2C160.1,107.5,160.2,107.6,160.2,107.6L160.2,107.6z M153.9,96.4
				c2.2,2,4.7,4.9,4.7,6.5c0,2.6-2.1,4.7-4.7,4.7c-2.6,0-4.7-2.1-4.7-4.7C149.1,101.3,151.7,98.4,153.9,96.4L153.9,96.4z M112,105.5
				c0-0.6,0.2-1.1,0.6-1.5c0.2-0.2,0.5-0.3,0.8-0.3h4.2c0.8,0,1.5-0.7,1.5-1.5l0,0c0-0.8-0.7-1.5-1.5-1.5h-3.9
				c-0.1-0.5-0.1-1-0.1-1.6c0-9.1,7.5-16.4,16.6-16.4c9.2,0,16.6,7.4,16.6,16.4c0,0.3,0,0.6,0,0.9c-0.1,0.2-0.2,0.4-0.3,0.7h-3.1
				c-0.8,0-1.5,0.7-1.5,1.5l0,0c0,0.8,0.7,1.5,1.5,1.5h2.6c0.2,1.4,0.7,2.8,1.6,3.9h-33.6C113,107.6,112,106.7,112,105.5z M99,110.6
				h85c1.6,0,3,1.3,3,2.9c-2.5,0.3-4,1.5-5.3,2.5c-0.5,0.4-1,0.8-1.6,1.1c-2.9,1.7-4.7,4.7-4.7,8V150c0,1.3-1.1,2.3-2.3,2.3l0,0l0,0
				c-1.3-0.1-2.4-1.1-2.3-2.4v-17.6c0-2.1-1.7-3.8-3.8-3.8c-0.1,0-0.2,0-0.3,0c-2,0.2-3.5,1.8-3.5,3.8v2.5c0,0.9-0.7,1.5-1.5,1.5
				l0,0l0,0c-0.4,0-0.8-0.2-1-0.5c-0.3-0.3-0.5-0.7-0.5-1.2v-4.7c0-1.1-0.5-2.2-1.2-2.9c-0.8-0.8-1.8-1.2-2.8-1.2c-2.2,0-4,1.8-4,4
				v19.8c0,0.4-0.4,0.8-0.8,0.8c0,0,0,0-0.1,0c-0.4-0.1-0.7-0.4-0.7-0.9v-27.7c0-2.9-1.4-5.6-3.8-7.1c-1.6-1.1-3.5-1.6-5.4-1.5
				c-3.5,0-5.2,1.4-6.8,2.6c-1.4,1.1-2.5,2-5,2c-2.4,0-3.6-0.9-5-2c-1.6-1.2-3.4-2.6-6.8-2.6c-3.4,0-5.2,1.4-6.8,2.6
				c-1.4,1.1-2.5,2-5,2s-3.6-0.9-5-2c-1.3-1-2.8-2.1-5.3-2.5C96.1,111.9,97.4,110.6,99,110.6z M96,120.8v-4.2c1.5,0.3,2.4,1,3.5,1.8
				c1.6,1.2,3.4,2.6,6.8,2.6c3.4,0,5.2-1.4,6.8-2.6c1.4-1.1,2.5-2,5-2c2.4,0,3.6,0.9,5,2c1.6,1.2,3.4,2.6,6.8,2.6
				c3.4,0,5.2-1.4,6.8-2.6c1.4-1.1,2.5-2,5-2c1.9,0,2.9,0.5,3.7,1.1c1.6,1,2.5,2.7,2.5,4.6v1.7H99C97.4,123.8,96,122.4,96,120.8z
				 M96,155.6v-3.5c0-1.7,1.4-3,3-3h43.8c0.8,0,1.5-0.7,1.5-1.5l0,0c0-0.8-0.7-1.5-1.5-1.5H99c-1.7,0-3-1.4-3-3l0,0v-3.5
				c0-1.7,1.4-3,3-3h7.4c0.8,0,1.5-0.7,1.5-1.5l0,0c0-0.8-0.7-1.5-1.5-1.5h-4.7v-6.6h45.9v22.9c0,2,1.5,3.7,3.5,3.8
				c2.1,0.2,3.9-1.4,4.1-3.5c0-0.1,0-0.2,0-0.3V130c0-0.6,0.4-1,1-1h0l0,0c0.3,0,0.5,0.1,0.7,0.3c0.2,0.2,0.3,0.5,0.4,0.8v4.7
				c0,1.2,0.5,2.4,1.4,3.3c0.8,0.9,2,1.3,3.2,1.3l0,0c0.8,0,1.5-0.2,2.1-0.5c1.5-0.8,2.4-2.3,2.4-4v-2.5c0-0.4,0.3-0.8,0.7-0.8
				c0.4,0,0.8,0.3,0.8,0.7c0,0,0,0.1,0,0.1v17.6c0,3,2.4,5.4,5.3,5.4h0c3,0,5.3-2.4,5.3-5.3l0,0v-13.6h5.5c1.7,0,3,1.4,3,3
				c0,0,0,0,0,0v3.5c0,1.7-1.4,3-3,3l0,0h-0.6c-0.8,0-1.5,0.7-1.5,1.5l0,0c0,0.8,0.7,1.5,1.5,1.5h0.6c1.7,0,3,1.4,3,3l0,0v3.5
				c0,1.7-1.4,3-3,3H99C97.3,158.6,96,157.3,96,155.6z M187.8,165.8H95.1c-2.5,0-4.7-1.7-5.4-4.1h103.6
				C192.5,164.1,190.3,165.8,187.8,165.8z"/>
			<path d="M113.5,136.4h29.4c0.8,0,1.5-0.7,1.5-1.5l0,0c0-0.8-0.7-1.5-1.5-1.5h-29.4c-0.8,0-1.5,0.7-1.5,1.5l0,0
				C112,135.8,112.6,136.4,113.5,136.4z"/>
			<path d="M159.7,149h3.6c0.8,0,1.5-0.7,1.5-1.5l0,0c0-0.8-0.7-1.5-1.5-1.5h-3.6c-0.8,0-1.5,0.7-1.5,1.5l0,0
				C158.2,148.4,158.9,149,159.7,149z"/>
			<path d="M119.7,138.8l-0.4,0.8c0,0-1.2,2.2-3.2,2.2c-1.9,0-2.8-2-2.8-2.1l-0.4-1h-9.9c-0.8,0-1.5,0.7-1.5,1.5l0,0
				c0,0.8,0.7,1.5,1.5,1.5h7.9c0.7,1.2,2.3,3,5.1,3s4.5-1.9,5.3-3h13.4c0.8,0,1.5-0.7,1.5-1.5l0,0c0-0.8-0.7-1.5-1.5-1.5h-14.2
				H119.7z"/>
			<path d="M141.4,141.7h1.5c0.8,0,1.5-0.7,1.5-1.5l0,0c0-0.8-0.7-1.5-1.5-1.5h-1.5c-0.8,0-1.5,0.7-1.5,1.5l0,0
				C139.8,141.1,140.5,141.7,141.4,141.7z"/>
		</g>
	</g>
</g>
<g id="Layer_3">
	<text transform="matrix(1 0 0 1 82.1849 202.9306)" class="st8 st9 st10">Pannkoogid</text>
	<text transform="matrix(1 0 0 1 81.8099 202.3337)" class="st3 st9 st10">Pannkoogid</text>
</g>
</svg>
